<?xml version="1.0" encoding="utf-8"?>
<!-- Generator: Adobe Illustrator 19.0.0, SVG Export Plug-In . SVG Version: 6.00 Build 0)  -->
<svg version="1.1" xmlns="http://www.w3.org/2000/svg" xmlns:xlink="http://www.w3.org/1999/xlink" x="0px" y="0px"
	 viewBox="0 0 500 500" style="enable-background:new 0 0 500 500;" xml:space="preserve">
<style type="text/css">
	.st0{display:none;fill:#FFFFFF;}
	.st1{opacity:0.41;}
	.st2{fill:#E1E2FE;}
	.st3{opacity:0.31;}
	.st4{opacity:0.47;fill:#E1E2FE;}
	.st5{opacity:0.81;fill:#E1E2FE;}
	.st6{opacity:0.58;fill:#3E479B;}
	.st7{opacity:0.58;fill:#EF929C;}
	.st8{opacity:0.61;}
	.st9{fill:#FFFFFF;}
	.st10{opacity:0.66;fill:#FFFFFF;}
	.st11{opacity:0.5;}
	.st12{opacity:0.43;fill:#FFFFFF;}
	.st13{opacity:0.27;fill:#FFFFFF;}
	.st14{opacity:0.67;fill:#FFFFFF;}
	.st15{fill:#3E479B;}
	.st16{opacity:0.32;fill:#EF92C7;}
	.st17{fill:#F9D9EB;}
	.st18{fill:#F7A9B4;}
	.st19{fill:#6363CE;}
	.st20{fill:#6D6CD4;}
	.st21{fill:#599AF2;}
	.st22{opacity:0.61;fill:#ECF1F7;}
	.st23{fill:#C5D9FF;}
	.st24{fill:#F28393;}
	.st25{opacity:0.42;fill:#EF929C;}
	.st26{opacity:0.32;fill:#F7A9B4;}
	.st27{fill:#F48B7B;}
	.st28{fill:#85BFFF;}
	.st29{fill:#F9E4CF;}
</style>
<g id="BACKGROUND">
	<rect x="-0.6" y="2.4" class="st0" width="500" height="500"/>
	<g>
		<g>
			<g class="st1">
				<g>
					<g>
						<path class="st2" d="M478.9,301.7c0.4-7.4,0.2-14.8-0.6-22.1c-3.9-34.4-21.6-66.9-47.6-89.9c-9.3-8.2-19.8-15.5-25.9-26.3
							c-10.2-18.2-9.4-39.1-22-57c-12.6-18-31.1-32-51.8-39.2C269,45.8,182.3,80.7,190.1,155.3c0,0.3,0.1,0.7,0.1,1.1
							c1,15.5-11.1,28.5-26.6,28.9c-57.1,1.4-106.3,45.4-116.8,101.2c-6.8,35.9,4.3,75.2,30.6,100.6c19.6,18.9,45.9,29.4,72.2,36.5
							c52.7,14.3,108.2,17.3,162.6,11.9c50.9-5.1,104.6-19.8,137.5-58.9C467.2,355.7,477.3,329,478.9,301.7z"/>
					</g>
				</g>
			</g>
			<g class="st3">
				<circle class="st2" cx="459.1" cy="104.7" r="19.7"/>
			</g>
			<g class="st3">
				<circle class="st2" cx="441.4" cy="62.3" r="6.9"/>
			</g>
			<g class="st3">
				<circle class="st2" cx="154.7" cy="78.4" r="9.2"/>
			</g>
			<g class="st3">
				<circle class="st2" cx="123.7" cy="53.9" r="2.9"/>
			</g>
			<g class="st3">
				<circle class="st2" cx="449.9" cy="455.3" r="9.2"/>
			</g>
			<g class="st3">
				<circle class="st2" cx="69.9" cy="429.1" r="25"/>
			</g>
		</g>
	</g>
	<g>
		<g>
			<path class="st4" d="M108.7,69.5c-9.4-6.3-22.1-3.8-28.3,5.6c-6.3,9.4-8.1,28.6,1.3,34.9c9.4,6.3,19.7-8.1,29.7-13.3
				C125.4,89.4,118.1,75.7,108.7,69.5z"/>
		</g>
		<g>
			<path class="st4" d="M472.6,358.3c6.3-10,7.8-22.3,6.5-34c-1.3-11.6-4.9-23.8-9.8-34.4c-4.7-10-11.5-18.9-13.5-30.1
				c-2.6-14.7,4.2-28.9,5.7-43.3c3.1-28.8-16.3-54.1-40.4-67.8c-19.6-11.1-42.5-15.3-65.1-15c-20.3,0.3-40.5,3.9-60.1,8.7
				c-18.9,4.7-37.4,10.8-57.3,8.9c-16.5-1.6-31.4-8.5-46.7-13.6c-36.7-12.2-81.1-13.9-114.7,4.7c-21.5,11.9-36.6,31.3-43.3,52.1
				c-4.9,15.2-6.3,32.8-2.8,48.2c4,17.3,11.5,32.6,9.5,50.9c-1.6,15-5.2,29.6-6.6,44.8C32.7,353,40.2,377,69.9,375
				c0.8-0.1,8,1.4,8.5,2h369.8C456.6,372.5,467.5,366.4,472.6,358.3z"/>
			<g>
				<path class="st5" d="M420.9,348.4c1.4-11.1-1.9-21.4-1.5-32.2c0.8-20.7,19.9-35.1,26.5-53.7c8.4-23.6,8-50.1-2.2-73.1
					c-4.9-11.1-12.1-21.4-21.9-28.5c-15.1-11-35-13.4-53.6-12c-27.8,2.1-57.1,13.6-85,10.5c-15.4-1.7-20.1-17.8-28.1-28.3
					c-9-12-21.3-21.3-34.8-27.6c-25-11.5-54.9-12.6-80.4-2.2c-27.2,11.1-51,38.3-49.4,69.1c0.7,14.2,6.7,28.4,3.9,42.4
					c-3.4,17.6-17.2,33.5-27.2,47.8c-11,15.8-17.7,34.6-19,53.8c-1.5,21.8,8.9,44,20.3,62.6h342.8
					C416.4,368.2,419.6,358.4,420.9,348.4z"/>
			</g>
		</g>
	</g>
	<circle class="st6" cx="461.8" cy="416" r="4.5"/>
	<circle class="st6" cx="32.7" cy="387.5" r="4.5"/>
	<circle class="st7" cx="405.3" cy="441.6" r="3.5"/>
	<circle class="st7" cx="52.5" cy="56.8" r="4.5"/>
	<circle class="st6" cx="200.9" cy="51" r="3.5"/>
	<circle class="st6" cx="56.5" cy="114.6" r="1.5"/>
	<circle class="st7" cx="324" cy="47.6" r="5.4"/>
	<circle class="st7" cx="466.3" cy="152.7" r="5.4"/>
	<circle class="st7" cx="111.8" cy="455.3" r="5.4"/>
	<circle class="st6" cx="298.8" cy="77.8" r="1.8"/>
</g>
<g id="OBJECTS">
	<g>
		<g class="st8">
			<g>
				<g>
					<path class="st9" d="M448.2,347.6h-143c-1.5,0-2.7-1.2-2.7-2.7v-74.4c0-1.5,1.2-2.7,2.7-2.7h143c1.5,0,2.7,1.2,2.7,2.7v74.4
						C450.9,346.4,449.7,347.6,448.2,347.6z M305.2,269.8c-0.4,0-0.7,0.3-0.7,0.7v74.4c0,0.4,0.3,0.7,0.7,0.7h143
						c0.4,0,0.7-0.3,0.7-0.7v-74.4c0-0.4-0.3-0.7-0.7-0.7H305.2z"/>
					<path class="st10" d="M448.2,347.6h-143c-1.5,0-2.7-1.2-2.7-2.7v-74.4c0-1.5,1.2-2.7,2.7-2.7h143c1.5,0,2.7,1.2,2.7,2.7v74.4
						C450.9,346.4,449.7,347.6,448.2,347.6z M305.2,269.8c-0.4,0-0.7,0.3-0.7,0.7v74.4c0,0.4,0.3,0.7,0.7,0.7h143
						c0.4,0,0.7-0.3,0.7-0.7v-74.4c0-0.4-0.3-0.7-0.7-0.7H305.2z"/>
				</g>
			</g>
			<g>
				<path class="st9" d="M433.3,285.7h-36.2c-0.7,0-1.2,0.6-1.2,1.2v11.6c0,0.7,0.6,1.2,1.2,1.2h36.2c0.7,0,1.2-0.6,1.2-1.2v-11.6
					C434.6,286.2,434,285.7,433.3,285.7z"/>
			</g>
			<g>
				<path class="st9" d="M433.3,311h-36.2c-0.7,0-1.2,0.6-1.2,1.2v11.6c0,0.7,0.6,1.2,1.2,1.2h36.2c0.7,0,1.2-0.6,1.2-1.2v-11.6
					C434.6,311.6,434,311,433.3,311z"/>
			</g>
			<path class="st9" d="M386.3,329.7h-63.5c-0.6,0-1-0.4-1-1c0-0.6,0.4-1,1-1h63.5c0.6,0,1,0.4,1,1
				C387.3,329.2,386.9,329.7,386.3,329.7z"/>
			<path class="st9" d="M386.3,306.4h-63.5c-0.6,0-1-0.4-1-1c0-0.6,0.4-1,1-1h63.5c0.6,0,1,0.4,1,1
				C387.3,305.9,386.9,306.4,386.3,306.4z"/>
			<path class="st9" d="M386.3,318h-34.2c-0.6,0-1-0.4-1-1c0-0.6,0.4-1,1-1h34.2c0.6,0,1,0.4,1,1C387.3,317.6,386.9,318,386.3,318z"
				/>
			<path class="st9" d="M386.3,294h-34.2c-0.6,0-1-0.4-1-1c0-0.6,0.4-1,1-1h34.2c0.6,0,1,0.4,1,1C387.3,293.6,386.9,294,386.3,294z"
				/>
			<path class="st9" d="M386.3,282.9h-23.1c-0.6,0-1-0.4-1-1c0-0.6,0.4-1,1-1h23.1c0.6,0,1,0.4,1,1
				C387.3,282.5,386.9,282.9,386.3,282.9z"/>
		</g>
		<g class="st8">
			<g>
				<g>
					<path class="st9" d="M205.5,266.6h-143c-1.5,0-2.7-1.2-2.7-2.7v-74.4c0-1.5,1.2-2.7,2.7-2.7h143c1.5,0,2.7,1.2,2.7,2.7v74.4
						C208.3,265.4,207,266.6,205.5,266.6z M62.5,188.7c-0.4,0-0.7,0.3-0.7,0.7v74.4c0,0.4,0.3,0.7,0.7,0.7h143
						c0.4,0,0.7-0.3,0.7-0.7v-74.4c0-0.4-0.3-0.7-0.7-0.7H62.5z"/>
					<path class="st10" d="M205.5,266.6h-143c-1.5,0-2.7-1.2-2.7-2.7v-74.4c0-1.5,1.2-2.7,2.7-2.7h143c1.5,0,2.7,1.2,2.7,2.7v74.4
						C208.3,265.4,207,266.6,205.5,266.6z M62.5,188.7c-0.4,0-0.7,0.3-0.7,0.7v74.4c0,0.4,0.3,0.7,0.7,0.7h143
						c0.4,0,0.7-0.3,0.7-0.7v-74.4c0-0.4-0.3-0.7-0.7-0.7H62.5z"/>
				</g>
			</g>
			<g>
				<path class="st9" d="M77.4,248.7h36.2c0.7,0,1.2-0.6,1.2-1.2v-11.6c0-0.7-0.6-1.2-1.2-1.2H77.4c-0.7,0-1.2,0.6-1.2,1.2v11.6
					C76.2,248.1,76.7,248.7,77.4,248.7z"/>
			</g>
			<g>
				<path class="st9" d="M77.4,223.3h36.2c0.7,0,1.2-0.6,1.2-1.2v-11.6c0-0.7-0.6-1.2-1.2-1.2H77.4c-0.7,0-1.2,0.6-1.2,1.2v11.6
					C76.2,222.8,76.7,223.3,77.4,223.3z"/>
			</g>
			<path class="st9" d="M187.9,206.7h-63.5c-0.6,0-1-0.4-1-1c0-0.6,0.4-1,1-1h63.5c0.6,0,1,0.4,1,1
				C188.9,206.2,188.5,206.7,187.9,206.7z"/>
			<path class="st9" d="M187.9,230h-63.5c-0.6,0-1-0.4-1-1c0-0.6,0.4-1,1-1h63.5c0.6,0,1,0.4,1,1C188.9,229.5,188.5,230,187.9,230z"
				/>
			<path class="st9" d="M158.6,218.3h-34.2c-0.6,0-1-0.4-1-1c0-0.6,0.4-1,1-1h34.2c0.6,0,1,0.4,1,1
				C159.6,217.9,159.2,218.3,158.6,218.3z"/>
			<path class="st9" d="M158.6,242.3h-34.2c-0.6,0-1-0.4-1-1c0-0.6,0.4-1,1-1h34.2c0.6,0,1,0.4,1,1
				C159.6,241.9,159.2,242.3,158.6,242.3z"/>
			<path class="st9" d="M147.5,253.4h-23.1c-0.6,0-1-0.4-1-1c0-0.6,0.4-1,1-1h23.1c0.6,0,1,0.4,1,1C148.5,253,148,253.4,147.5,253.4
				z"/>
		</g>
		<g class="st11">
			<path class="st9" d="M411.7,244.9c-0.1,0-0.2,0-0.3-0.1c-0.3-0.1-0.4-0.4-0.4-0.6v-5.8h-12.1c-1.6,0-2.9-1.3-2.9-2.9V219
				c0-1.6,1.3-2.9,2.9-2.9H427c1.6,0,2.9,1.3,2.9,2.9v16.6c0,1.6-1.3,2.9-2.9,2.9h-8l-6.9,6.3C412,244.8,411.9,244.9,411.7,244.9z
				 M411.5,244C411.5,244,411.5,244,411.5,244L411.5,244z M398.9,217.1c-1,0-1.9,0.8-1.9,1.9v16.6c0,1,0.8,1.9,1.9,1.9h12.4
				c0.4,0,0.7,0.3,0.7,0.7v5.4l6.4-5.9c0.1-0.1,0.3-0.2,0.5-0.2h8.1c1,0,1.9-0.8,1.9-1.9V219c0-1-0.8-1.9-1.9-1.9H398.9z
				 M419.1,238.4L419.1,238.4C419.1,238.4,419.1,238.4,419.1,238.4z"/>
			<g>
				<path class="st9" d="M405.3,230.4c-1.3,0-2.4-1.1-2.4-2.4c0-1.3,1.1-2.4,2.4-2.4c1.3,0,2.4,1.1,2.4,2.4
					C407.7,229.3,406.6,230.4,405.3,230.4z M405.3,226.6c-0.8,0-1.4,0.6-1.4,1.4c0,0.8,0.6,1.4,1.4,1.4c0.8,0,1.4-0.6,1.4-1.4
					C406.7,227.2,406.1,226.6,405.3,226.6z"/>
				<path class="st9" d="M412.7,230.4c-1.3,0-2.4-1.1-2.4-2.4c0-1.3,1.1-2.4,2.4-2.4c1.3,0,2.4,1.1,2.4,2.4
					C415.1,229.3,414,230.4,412.7,230.4z M412.7,226.6c-0.8,0-1.4,0.6-1.4,1.4c0,0.8,0.6,1.4,1.4,1.4c0.8,0,1.4-0.6,1.4-1.4
					C414.1,227.2,413.5,226.6,412.7,226.6z"/>
				<path class="st9" d="M420.1,230.4c-1.3,0-2.4-1.1-2.4-2.4c0-1.3,1.1-2.4,2.4-2.4c1.3,0,2.4,1.1,2.4,2.4
					C422.5,229.3,421.4,230.4,420.1,230.4z M420.1,226.6c-0.8,0-1.4,0.6-1.4,1.4c0,0.8,0.6,1.4,1.4,1.4c0.8,0,1.4-0.6,1.4-1.4
					C421.5,227.2,420.9,226.6,420.1,226.6z"/>
			</g>
		</g>
		<g class="st11">
			<path class="st9" d="M96.3,350.5c-0.2,0-0.3-0.1-0.5-0.2l-7-6.4h-8.1c-1.6,0-2.9-1.3-2.9-2.9v-16.8c0-1.6,1.3-2.9,2.9-2.9h28.6
				c1.6,0,2.9,1.3,2.9,2.9v16.8c0,1.6-1.3,2.9-2.9,2.9H97v5.9c0,0.3-0.2,0.5-0.4,0.6C96.5,350.5,96.4,350.5,96.3,350.5z M96.5,349.6
				L96.5,349.6C96.5,349.6,96.5,349.6,96.5,349.6z M80.8,322.3c-1,0-1.9,0.9-1.9,1.9v16.8c0,1,0.9,1.9,1.9,1.9H89
				c0.2,0,0.3,0.1,0.5,0.2l6.5,6v-5.5c0-0.4,0.3-0.7,0.7-0.7h12.6c1,0,1.9-0.9,1.9-1.9v-16.8c0-1-0.9-1.9-1.9-1.9H80.8z M88.8,343.9
				C88.8,343.9,88.8,343.9,88.8,343.9L88.8,343.9z"/>
			<g>
				<path class="st9" d="M102.9,335.8c-1.3,0-2.4-1.1-2.4-2.4c0-1.3,1.1-2.4,2.4-2.4c1.3,0,2.4,1.1,2.4,2.4
					C105.3,334.7,104.2,335.8,102.9,335.8z M102.9,331.9c-0.8,0-1.4,0.6-1.4,1.4c0,0.8,0.6,1.4,1.4,1.4c0.8,0,1.4-0.6,1.4-1.4
					C104.3,332.6,103.6,331.9,102.9,331.9z"/>
				<path class="st9" d="M95.3,335.8c-1.3,0-2.4-1.1-2.4-2.4c0-1.3,1.1-2.4,2.4-2.4c1.3,0,2.4,1.1,2.4,2.4
					C97.8,334.7,96.7,335.8,95.3,335.8z M95.3,331.9c-0.8,0-1.4,0.6-1.4,1.4c0,0.8,0.6,1.4,1.4,1.4c0.8,0,1.4-0.6,1.4-1.4
					C96.8,332.6,96.1,331.9,95.3,331.9z"/>
				<path class="st9" d="M87.8,335.8c-1.3,0-2.4-1.1-2.4-2.4c0-1.3,1.1-2.4,2.4-2.4c1.3,0,2.4,1.1,2.4,2.4
					C90.2,334.7,89.1,335.8,87.8,335.8z M87.8,331.9c-0.8,0-1.4,0.6-1.4,1.4c0,0.8,0.6,1.4,1.4,1.4c0.8,0,1.4-0.6,1.4-1.4
					C89.2,332.6,88.6,331.9,87.8,331.9z"/>
			</g>
		</g>
		<path class="st12" d="M394.3,249.6c-1.6,0-2.8-1.3-2.8-2.8s1.3-2.8,2.8-2.8c1.6,0,2.8,1.3,2.8,2.8S395.8,249.6,394.3,249.6z
			 M394.3,244.9c-1,0-1.8,0.8-1.8,1.8s0.8,1.8,1.8,1.8s1.8-0.8,1.8-1.8S395.3,244.9,394.3,244.9z"/>
		<path class="st12" d="M414.8,190.8c-5,0-9-4.1-9-9c0-5,4.1-9,9-9c5,0,9,4.1,9,9C423.9,186.7,419.8,190.8,414.8,190.8z
			 M414.8,173.7c-4.4,0-8,3.6-8,8s3.6,8,8,8c4.4,0,8-3.6,8-8S419.3,173.7,414.8,173.7z"/>
		<path class="st12" d="M93.4,289.8c-1.6,0-2.8-1.3-2.8-2.8c0-1.6,1.3-2.8,2.8-2.8c1.6,0,2.8,1.3,2.8,2.8
			C96.2,288.5,94.9,289.8,93.4,289.8z M93.4,285.1c-1,0-1.8,0.8-1.8,1.8s0.8,1.8,1.8,1.8c1,0,1.8-0.8,1.8-1.8S94.4,285.1,93.4,285.1
			z"/>
		<path class="st12" d="M142.6,371c-1.6,0-2.8-1.3-2.8-2.8c0-1.6,1.3-2.8,2.8-2.8c1.6,0,2.8,1.3,2.8,2.8
			C145.4,369.7,144.2,371,142.6,371z M142.6,366.3c-1,0-1.8,0.8-1.8,1.8c0,1,0.8,1.8,1.8,1.8c1,0,1.8-0.8,1.8-1.8
			C144.4,367.2,143.6,366.3,142.6,366.3z"/>
		<g>
			<circle class="st13" cx="134" cy="143.2" r="16.5"/>
			<path class="st14" d="M136.9,141.5c1-0.8,1.6-2,1.6-3.4c0-2.5-2-4.4-4.4-4.4c-2.5,0-4.4,2-4.4,4.4c0,1.4,0.6,2.6,1.6,3.4
				c-3.1,1.2-5.4,4.2-5.4,7.7c0,4.5,16.5,4.5,16.5,0C142.3,145.7,140,142.7,136.9,141.5z"/>
		</g>
		<g>
			<circle class="st13" cx="322.8" cy="197.2" r="15.1"/>
			<path class="st14" d="M325.4,195.7c0.9-0.7,1.5-1.9,1.5-3.1c0-2.2-1.8-4.1-4.1-4.1c-2.2,0-4.1,1.8-4.1,4.1c0,1.3,0.6,2.4,1.5,3.1
				c-2.9,1.1-4.9,3.8-4.9,7.1c0,4.2,15,4.2,15,0C330.3,199.6,328.3,196.8,325.4,195.7z"/>
		</g>
	</g>
	<g>
		<path class="st15" d="M312.6,176.8c-0.6-12.2-7.2-22.7-16.8-28.8c-1.8-1.2-2.4-3.5-1.3-5.4c3-5.2,4.6-11.5,4.2-18
			c-0.8-11.9-7.9-21.7-17.8-26.1c3.1-0.9,5.1-1.6,5.1-1.6s-7.2-38.5-45.4-35.7c-27.5,2-39.4,15.5-44.2,29.2
			c-0.3,0.8-0.8,1.5-1.6,1.9c-6.3,3.2-10.3,9.6-10.6,16.6c-0.1,1.6-1.1,3.1-2.6,3.6c-18.2,6.7-28.5,26.4-23.3,45.4l0,0
			c0.4,1.3-0.1,2.7-1.1,3.5c-14.8,12.2-23.4,31.5-21,52.2c3.5,30.2,30,53,60.4,52c22.4-0.7,41.3-13.8,50.7-32.3
			c5.6-11.1,17-18.2,29.4-18.4c0.2,0,0.4,0,0.5,0C298.3,214.3,313.7,197.6,312.6,176.8z"/>
		<g>
			<g>
				<g>
					<g>
						<polygon class="st16" points="320.7,328.9 320.7,328.9 320.7,328.9 						"/>
						<path class="st17" d="M384,167.8l-0.4-0.1c-1.8-0.4-3.7,0.8-4.1,2.6l0.6-2.8c0.5-2.2-0.9-4.3-3.1-4.8
							c-2.2-0.5-4.3,0.9-4.8,3.1l0.7-3.3c0.5-2.2-0.9-4.3-3.1-4.8c-2.2-0.5-4.3,0.9-4.8,3.1l-0.4,1.9c0.5-2.2-0.9-4.3-3.1-4.8
							c-2.2-0.5-4.3,0.9-4.8,3.1l-6.2,28.1c-0.9-0.8-1.5-1.9-1.7-3.1c-0.4-2.9-1.4-6.7-4.1-7.1c-5.4-0.8-8.9,8.3-7.9,23.9
							c1,15.8,4.4,16.4,4.4,16.4l-13,43.1l-0.2,0.7l-11.3-24.3l-27.2,17.8l25.4,62.3c0.5,1.9,1.3,3.8,2.3,5.5l0,0.1l0,0
							c0.9,1.6,2,3.2,3.4,4.6c0,0,0,0,0,0c0.7,0.8,1.5,1.5,2.4,2.2c9.8,8,22,3.3,30-4.9c9.7-10,10.9-22.1,12.3-35.4
							c1.1-10.9,4.9-46.6,5.6-53.6l1.2-10.7c0,0,10.5-9.8,8.9-29.9l5.5-24.8C387,170.1,385.8,168.2,384,167.8z"/>
						<path class="st16" d="M328.1,262.9l-3.2-6.8l-10,50.8l0,0c0.1-0.2,0.1-0.5,0.2-0.7L328.1,262.9z"/>
					</g>
					<path class="st18" d="M361,179.5c0,0-0.1,0-0.1,0c-0.3-0.1-0.4-0.3-0.4-0.6l3.7-16.5c0.1-0.3,0.3-0.4,0.6-0.4
						c0.3,0.1,0.4,0.3,0.4,0.6l-3.7,16.5C361.4,179.4,361.2,179.5,361,179.5z"/>
					<path class="st18" d="M368.7,182.3c0,0-0.1,0-0.1,0c-0.3-0.1-0.4-0.3-0.4-0.6l3.7-16.5c0.1-0.3,0.3-0.4,0.6-0.4
						c0.3,0.1,0.4,0.3,0.4,0.6l-3.7,16.5C369.1,182.1,368.9,182.3,368.7,182.3z"/>
					<path class="st18" d="M376,186.6c0,0-0.1,0-0.1,0c-0.3-0.1-0.4-0.3-0.4-0.6l3.7-16.5c0.1-0.3,0.3-0.4,0.6-0.4
						c0.3,0.1,0.4,0.3,0.4,0.6l-3.7,16.5C376.5,186.4,376.3,186.6,376,186.6z"/>
					<path class="st18" d="M355.9,205.1c-0.1,0-0.1,0-0.2,0c-0.3-0.1-0.4-0.4-0.3-0.6c3.5-10.8-5.4-15.1-5.8-15.3
						c-0.3-0.1-0.4-0.4-0.2-0.7c0.1-0.3,0.4-0.4,0.7-0.2c0.1,0,10.1,4.9,6.3,16.5C356.3,205,356.2,205.1,355.9,205.1z"/>
				</g>
				<g>
					<path class="st17" d="M279.8,217.7c-0.1-0.4-0.2-0.7-0.2-1.1C279.6,217,279.7,217.3,279.8,217.7z"/>
					<path class="st17" d="M279.3,215.7c-0.1-0.4-0.2-0.7-0.3-1.1C279.2,215,279.2,215.3,279.3,215.7z"/>
					<path class="st17" d="M278.9,213.8c-0.1-0.4-0.2-0.7-0.3-1.1C278.7,213,278.8,213.4,278.9,213.8z"/>
					<path class="st17" d="M278.5,211.9c-0.1-0.3-0.2-0.7-0.2-1C278.3,211.2,278.4,211.5,278.5,211.9z"/>
					<path class="st17" d="M280.3,219.7c-0.1-0.4-0.2-0.7-0.3-1.1C280.1,219,280.2,219.4,280.3,219.7z"/>
					<path class="st17" d="M278.1,210.1c-0.1-0.3-0.1-0.7-0.2-1C277.9,209.4,278,209.7,278.1,210.1z"/>
					<path class="st17" d="M282.4,228.3c-0.1-0.4-0.2-0.8-0.3-1.2C282.2,227.5,282.3,227.9,282.4,228.3z"/>
					<path class="st17" d="M282.9,230.6c-0.1-0.4-0.2-0.8-0.3-1.2C282.7,229.7,282.8,230.1,282.9,230.6z"/>
					<path class="st17" d="M281.8,226.1c-0.1-0.4-0.2-0.7-0.3-1.1C281.6,225.4,281.7,225.7,281.8,226.1z"/>
					<path class="st17" d="M281.3,223.9c-0.1-0.4-0.2-0.7-0.3-1.1C281.1,223.2,281.2,223.5,281.3,223.9z"/>
					<path class="st17" d="M280.8,221.8c-0.1-0.4-0.2-0.8-0.3-1.2C280.6,221,280.7,221.4,280.8,221.8z"/>
					<path class="st17" d="M277,205c-0.1-0.3-0.1-0.5-0.2-0.8C276.9,204.5,276.9,204.7,277,205z"/>
					<path class="st17" d="M275.6,197.1c0-0.2-0.1-0.4-0.1-0.6C275.5,196.7,275.5,196.9,275.6,197.1z"/>
					<path class="st17" d="M275.7,198.2c0-0.2-0.1-0.4-0.1-0.6C275.7,197.8,275.7,198,275.7,198.2z"/>
					<path class="st17" d="M275.5,196.1c0-0.3-0.1-0.6-0.1-0.9C275.4,195.5,275.4,195.8,275.5,196.1z"/>
					<path class="st17" d="M275.9,199.4c0-0.2-0.1-0.4-0.1-0.7C275.9,198.9,275.9,199.2,275.9,199.4z"/>
					<path class="st17" d="M276.4,202c0-0.3-0.1-0.5-0.1-0.8C276.3,201.5,276.4,201.8,276.4,202z"/>
					<path class="st17" d="M283.5,232.8c-0.1-0.4-0.2-0.8-0.3-1.3C283.3,232,283.4,232.4,283.5,232.8z"/>
					<path class="st17" d="M277.3,206.6c-0.1-0.3-0.1-0.6-0.2-0.9C277.2,206.1,277.3,206.3,277.3,206.6z"/>
					<path class="st17" d="M277.7,208.3c-0.1-0.3-0.1-0.6-0.2-1C277.5,207.7,277.6,208,277.7,208.3z"/>
					<path class="st17" d="M276.2,200.7c0-0.2-0.1-0.4-0.1-0.7C276.1,200.2,276.1,200.4,276.2,200.7z"/>
					<path class="st17" d="M276.7,203.5c-0.1-0.3-0.1-0.6-0.2-0.8C276.6,202.9,276.6,203.2,276.7,203.5z"/>
					<path class="st17" d="M285.8,242.1c-0.1-0.4-0.2-0.9-0.3-1.3C285.6,241.2,285.7,241.6,285.8,242.1z"/>
					<path class="st17" d="M285.2,239.8c-0.1-0.5-0.2-0.9-0.4-1.4C285,238.8,285.1,239.3,285.2,239.8z"/>
					<path class="st17" d="M288.3,251.5c-0.1-0.5-0.2-0.9-0.4-1.4C288.1,250.6,288.2,251.1,288.3,251.5z"/>
					<path class="st17" d="M284.7,237.4c-0.1-0.4-0.2-0.8-0.3-1.2C284.4,236.6,284.5,237,284.7,237.4z"/>
					<path class="st17" d="M287.7,249.1c-0.1-0.5-0.2-0.9-0.4-1.4C287.4,248.2,287.6,248.7,287.7,249.1z"/>
					<path class="st17" d="M287.1,246.8c-0.1-0.4-0.2-0.8-0.3-1.3C286.8,246,287,246.4,287.1,246.8z"/>
					<path class="st17" d="M286.4,244.4c-0.1-0.4-0.2-0.7-0.3-1.1C286.2,243.6,286.3,244,286.4,244.4z"/>
					<path class="st17" d="M289.5,256.1c-0.1-0.4-0.2-0.7-0.3-1.1C289.3,255.4,289.4,255.7,289.5,256.1z"/>
					<path class="st17" d="M288.9,253.9c-0.1-0.5-0.2-0.9-0.4-1.4C288.7,252.9,288.8,253.4,288.9,253.9z"/>
					<path class="st17" d="M284.1,235.1c-0.1-0.4-0.2-0.8-0.3-1.2C283.9,234.3,284,234.7,284.1,235.1z"/>
					<path class="st19" d="M316.8,238.6c-23.7-41-41.4-43.4-41.4-43.4c0,0.3,0.1,0.6,0.1,0.9c0,0.1,0,0.2,0,0.4c0,0.2,0,0.4,0.1,0.6
						c0,0.2,0,0.3,0.1,0.5c0,0.2,0.1,0.4,0.1,0.6c0,0.2,0.1,0.3,0.1,0.5c0,0.2,0.1,0.4,0.1,0.7c0,0.2,0.1,0.4,0.1,0.6
						c0,0.2,0.1,0.4,0.1,0.7c0,0.2,0.1,0.4,0.1,0.6c0,0.2,0.1,0.5,0.1,0.8c0,0.2,0.1,0.4,0.1,0.6c0.1,0.3,0.1,0.5,0.2,0.8
						c0,0.2,0.1,0.5,0.1,0.7c0.1,0.3,0.1,0.5,0.2,0.8c0.1,0.2,0.1,0.5,0.2,0.8c0.1,0.3,0.1,0.6,0.2,0.9c0,0.2,0.1,0.5,0.2,0.7
						c0.1,0.3,0.1,0.6,0.2,1c0.1,0.3,0.1,0.5,0.2,0.8c0.1,0.3,0.1,0.6,0.2,1c0.1,0.3,0.1,0.5,0.2,0.8c0.1,0.3,0.2,0.7,0.2,1
						c0.1,0.3,0.1,0.5,0.2,0.8c0.1,0.4,0.2,0.7,0.3,1.1c0.1,0.3,0.1,0.6,0.2,0.8c0.1,0.4,0.2,0.7,0.3,1.1c0.1,0.3,0.1,0.6,0.2,0.9
						c0.1,0.4,0.2,0.7,0.2,1.1c0.1,0.3,0.2,0.7,0.2,1c0.1,0.4,0.2,0.7,0.3,1.1c0.1,0.3,0.1,0.6,0.2,0.9c0.1,0.4,0.2,0.8,0.3,1.2
						c0.1,0.3,0.2,0.7,0.2,1c0.1,0.4,0.2,0.7,0.3,1.1c0.1,0.4,0.2,0.7,0.3,1.1c0.1,0.4,0.2,0.7,0.3,1.1c0.1,0.3,0.2,0.7,0.2,1
						c0.1,0.4,0.2,0.8,0.3,1.2c0.1,0.3,0.2,0.7,0.2,1c0.1,0.4,0.2,0.8,0.3,1.2c0.1,0.3,0.2,0.7,0.3,1c0.1,0.4,0.2,0.8,0.3,1.3
						c0.1,0.4,0.2,0.7,0.3,1.1c0.1,0.4,0.2,0.8,0.3,1.2c0.1,0.4,0.2,0.7,0.3,1.1c0.1,0.4,0.2,0.8,0.3,1.2c0.1,0.3,0.2,0.6,0.2,1
						c0.1,0.5,0.2,0.9,0.4,1.4c0.1,0.3,0.2,0.7,0.3,1c0.1,0.4,0.2,0.9,0.3,1.3c0.1,0.4,0.2,0.8,0.3,1.2c0.1,0.4,0.2,0.7,0.3,1.1
						c0.1,0.4,0.2,0.8,0.3,1.2c0.1,0.4,0.2,0.8,0.3,1.3c0.1,0.3,0.2,0.7,0.3,1c0.1,0.5,0.2,0.9,0.4,1.4c0.1,0.3,0.2,0.7,0.3,1
						c0.1,0.5,0.2,0.9,0.4,1.4c0.1,0.3,0.2,0.6,0.3,1c0.1,0.5,0.2,0.9,0.4,1.4c0.1,0.4,0.2,0.8,0.3,1.1c0.1,0.4,0.2,0.7,0.3,1.1
						c0,0.1,0.1,0.2,0.1,0.3c0,0,0,0,0,0C291.8,264.7,316.8,238.6,316.8,238.6z"/>
				</g>
			</g>
			<g>
				<g>
					<path class="st20" d="M306.7,271l-15.5-42.4c-0.2-29.4-14.3-38.5-41-38.2l-58.1,0.5c-9.8,0.1-18.5,5.2-24,13.2l0,0l0,0
						c-0.9,1.3-1.7,2.6-2.4,4l-38.9,65.4l1.1,0.4l34.5,12.2l0.7,91h129.2l4.3-65.9l7.2-11.4C309.1,291.3,310.2,280.5,306.7,271z"/>
					<path class="st9" d="M186.1,294.1c0,0-0.1,0-0.1,0l-11.3-2.3c-0.3-0.1-0.4-0.3-0.4-0.6c0.1-0.3,0.3-0.5,0.6-0.4l10.9,2.2
						l9.2-38.2c0.1-0.3,0.3-0.4,0.6-0.4c0.3,0.1,0.4,0.3,0.4,0.6l-9.3,38.6C186.5,294,186.3,294.1,186.1,294.1z"/>
				</g>
			</g>
			<g>
				<g>
					<path class="st21" d="M219.1,297.5l12,62.5c0.6,3.3,3.8,5.4,7,4.8l96.7-18.4c3.2-0.6,5.4-3.7,4.8-7l-11.1-61.6
						c-0.6-3.3-3.7-5.4-7-4.8l-97.6,17.5C220.6,291.1,218.5,294.3,219.1,297.5z"/>
					<path class="st22" d="M241.8,360.3c-2.8,0-5.2-2-5.8-4.8l-10.7-55.7c-0.3-1.6,0-3.1,0.9-4.4c0.9-1.3,2.2-2.2,3.8-2.5l87.1-15.6
						c3.2-0.6,6.2,1.5,6.8,4.7l9.9,54.9c0.6,3.2-1.5,6.2-4.7,6.8l-86.3,16.4C242.6,360.2,242.2,360.3,241.8,360.3z M318.2,278.2
						c-0.3,0-0.6,0-0.9,0.1l-87.1,15.6c-1.3,0.2-2.4,1-3.1,2c-0.7,1.1-1,2.4-0.8,3.7l10.7,55.7c0.5,2.6,3.1,4.4,5.7,3.9l86.3-16.4
						c2.6-0.5,4.3-3,3.9-5.6l-9.9-54.9C322.6,279.8,320.5,278.2,318.2,278.2z"/>
					<path class="st22" d="M280.9,328.5c-3.3,0-6.5-1.9-7.9-5.1c-1-2.1-1.1-4.5-0.3-6.7c0.8-2.2,2.4-3.9,4.5-4.9
						c2.1-1,4.5-1.1,6.7-0.3c2.2,0.8,3.9,2.4,4.9,4.5l0,0c2,4.4,0.1,9.6-4.3,11.6C283.3,328.3,282.1,328.5,280.9,328.5z
						 M280.9,312.1c-1.1,0-2.2,0.2-3.2,0.7c-1.9,0.9-3.3,2.4-4,4.3c-0.7,1.9-0.6,4,0.2,5.9c1.8,3.9,6.4,5.6,10.3,3.8
						c3.9-1.8,5.6-6.4,3.8-10.3c-0.9-1.9-2.4-3.3-4.3-4C282.7,312.2,281.8,312.1,280.9,312.1z"/>
				</g>
				<g>
					<path class="st17" d="M271.1,335.3c-0.6-1.1-1.7-1.7-2.8-1.8c0-0.1,0-0.2,0-0.2c0.1-0.1,0.1-0.2,0.2-0.2l1.4-0.7
						c1.7-0.8,2.7-2.6,2.3-4.5c-0.3-1.3-1.2-2.2-2.2-2.7l0,0c2.4-1.1,3-4.2,1.1-6l-0.1-0.1c-1.2-1.2-3-1.6-4.6-0.9
						c-0.2,0-0.3,0-0.5,0c1.4-1.2,1.9-3.4,0.8-5.1c-1.1-1.6-3.2-2.2-5-1.4l-7.1,3.1l-30.7,7.7l-1.5-8l-1.2,0.7
						c-4.7,2.8-8.8,6.6-12,11l-2.7,3.7c0,0-29.7-9.2-48.7-15.1l12.3-26.2l-42.2-14.9l-21,44.2c-1.4,2.9-2.3,6-2.6,9
						c-1.7,7.6,0.2,13.7,4.4,18.5c2.1,3,5,5.5,8.4,7.1h0c1.1,0.5,2.1,0.9,3.2,1.2c20.4,9.7,54,10.6,68.8,12.9
						c7,1.1,12.9,1.7,17.8,2.1c12.8,0.9,25.5-2.3,36.2-9.3c9.6-6.2,19-13.6,20.9-15.9c0.3-0.3,0.5-0.6,0.7-0.9l5.1-2.8
						c1.7-0.9,2.3-3,1.4-4.6L271.1,335.3z"/>
					<polygon class="st16" points="116.5,303.6 162.2,305.4 157.7,314.9 					"/>
					<g>
						<path class="st18" d="M250.6,325.3c-0.2,0-0.4-0.1-0.5-0.3c-0.1-0.3,0-0.5,0.3-0.7l15.5-6.8c0.3-0.1,0.5,0,0.7,0.3
							c0.1,0.3,0,0.5-0.3,0.7l-15.5,6.8C250.8,325.3,250.7,325.3,250.6,325.3z"/>
						<path class="st18" d="M252.8,332.8c-0.2,0-0.4-0.1-0.5-0.3c-0.1-0.3,0-0.5,0.3-0.7l15.5-6.8c0.3-0.1,0.5,0,0.7,0.3
							c0.1,0.3,0,0.5-0.3,0.7l-15.5,6.8C253,332.8,252.9,332.8,252.8,332.8z"/>
						<path class="st18" d="M252.7,341.2c-0.2,0-0.4-0.1-0.5-0.3c-0.1-0.3,0-0.5,0.2-0.7l15.3-7.3c0.2-0.1,0.5,0,0.7,0.2
							c0.1,0.3,0,0.5-0.2,0.7l-15.3,7.3C252.9,341.2,252.8,341.2,252.7,341.2z"/>
					</g>
				</g>
			</g>
		</g>
		<g>
			<g>
				<g>
					<path class="st17" d="M278.3,104c-0.1-1.6-0.4-3.1-0.7-4.5c-11.2,3-30.1,6.4-35.9-1.9c-4.8,3.2-7.5,10.2-9,17.3
						c-0.2,1.1-0.6,2.1-1,3.2c-4.1,10.2-16.5,14-26,8.5l0,0l-0.7-6.1l-0.8,0.1c-7.6,0.7-13.3,7.6-12.5,15.2l0,0
						c0.7,7.6,7.6,13.3,15.2,12.5l0.9-0.1c0.4,3.2,1.3,6.2,2.5,9.1c-0.1,0.9-0.2,1.8-0.2,2.8v34c0,10.9,8.9,19.9,19.9,19.9
						c10.9,0,19.9-8.9,19.9-19.9v-15.3c10.8-1.9,19.8-8.6,25-17.6c4.9-6.8,7.5-15.4,6.7-24.4L278.3,104z"/>
				</g>
				<path class="st16" d="M249.3,175.7L249.3,175.7c-18.5,1.8-35.1-10.9-38.5-28.8c0-0.2-3.1,1.1-3,1.3c0.8,5.6,2.8,10.7,5.7,15.1
					c-0.2,1.1-0.2,2.1-0.2,3.2v0c0.3,10.9,9.4,19.7,20.3,19.4l0,0c5.8-0.1,11-2.8,14.6-6.9c11.5-1.5,21.1-8.4,26.6-17.8
					C269,169.1,259.9,174.6,249.3,175.7z"/>
			</g>
			<g>
				<path class="st18" d="M201.2,138.3c-0.2,0-0.3-0.1-0.4-0.2c-0.1-0.2-0.1-0.5,0.2-0.7l4.8-3.1l-5.2-5.8c-0.2-0.2-0.2-0.5,0-0.7
					c0.2-0.2,0.5-0.2,0.7,0l5.5,6.2c0.1,0.1,0.1,0.3,0.1,0.4c0,0.1-0.1,0.3-0.2,0.4l-5.2,3.4C201.4,138.3,201.3,138.3,201.2,138.3z"
					/>
				<g>
					<g>
						<path class="st18" d="M252.1,161.8c-0.1,0-0.3-0.1-0.4-0.2c-0.2-0.2-0.1-0.5,0.1-0.7c0,0,3.3-2.6,6.7-0.4
							c0.2,0.1,0.3,0.5,0.2,0.7c-0.1,0.2-0.5,0.3-0.7,0.2c-2.8-1.8-5.4,0.3-5.5,0.3C252.3,161.7,252.2,161.8,252.1,161.8z"/>
						<path class="st9" d="M255.8,154.7l-6,0.1c-5.5,0.1-10.1-4.2-10.2-9.8l0-1.5l18.4-0.4l0.2,9
							C258.3,153.5,257.2,154.6,255.8,154.7z"/>
					</g>
				</g>
				<g>
					<g>
						<path class="st15" d="M244.3,127.8l0.2,0c0.8-0.1,1.4-0.8,1.4-1.7l-0.2-1.8c-0.1-0.8-0.8-1.4-1.7-1.4l-0.2,0
							c-0.8,0.1-1.4,0.8-1.4,1.7l0.2,1.8C242.8,127.3,243.5,127.9,244.3,127.8z"/>
						<path class="st15" d="M267.6,128l0.2,0c0.8-0.1,1.4-0.8,1.3-1.7l-0.2-1.8c-0.1-0.8-0.8-1.4-1.7-1.3l-0.2,0
							c-0.8,0.1-1.4,0.8-1.3,1.7l0.2,1.8C266,127.5,266.8,128.1,267.6,128z"/>
						<path class="st18" d="M257.5,141.4c-0.5,0-0.9-0.3-1-0.8c-0.1-0.5,0.2-1.1,0.7-1.2l4-1c0.3-0.1,0.5-0.4,0.4-0.7l-4.1-17.2
							c-0.1-0.5,0.2-1.1,0.7-1.2c0.5-0.1,1.1,0.2,1.2,0.7l4.1,17.2c0.3,1.4-0.5,2.8-1.9,3.1l-4,1
							C257.7,141.3,257.6,141.4,257.5,141.4z"/>
						<path class="st9" d="M244.7,138.4c-2.5,0-5-0.8-7.1-2.2c-2.7-1.9-4.5-4.7-5.1-8l0,0c-0.6-3.3,0.1-6.6,2-9.3
							c1.9-2.7,4.7-4.5,8-5.1c3.3-0.6,6.6,0.1,9.3,2c2.7,1.9,4.5,4.7,5.1,8c0.6,3.3-0.1,6.6-2,9.3c-1.9,2.7-4.7,4.5-8,5.1
							C246.2,138.4,245.4,138.4,244.7,138.4z M244.8,115.6c-0.6,0-1.2,0.1-1.9,0.2c-2.7,0.5-5.1,2-6.7,4.3c-1.6,2.3-2.2,5.1-1.7,7.8
							l0,0c0.5,2.7,2,5.1,4.3,6.7c2.3,1.6,5,2.2,7.8,1.7c2.7-0.5,5.1-2,6.7-4.3c1.6-2.3,2.2-5.1,1.7-7.8c-0.5-2.7-2-5.1-4.3-6.7
							C248.9,116.2,246.9,115.6,244.8,115.6z"/>
						<path class="st9" d="M273.6,138.9c-2.5,0-5-0.8-7.1-2.2c-2.7-1.9-4.5-4.7-5.1-8c-0.6-3.3,0.1-6.6,2-9.3c1.9-2.7,4.7-4.5,8-5.1
							c6.7-1.2,13.2,3.3,14.4,10c0.6,3.3-0.1,6.6-2,9.3c-1.9,2.7-4.7,4.5-8,5.1C275.1,138.8,274.4,138.9,273.6,138.9z M273.7,116
							c-0.6,0-1.2,0.1-1.8,0.2c-2.7,0.5-5.1,2-6.7,4.3c-1.6,2.3-2.2,5.1-1.7,7.8l0,0c0.5,2.7,2,5.1,4.3,6.7c2.3,1.6,5.1,2.2,7.8,1.7
							c2.7-0.5,5.1-2,6.7-4.3c1.6-2.3,2.2-5.1,1.7-7.8C283,119.6,278.6,116,273.7,116z"/>
						<path class="st9" d="M257.2,127.5c-0.5,0-1-0.4-1-0.9c0-0.6,0.4-1,0.9-1.1l4.5-0.4c0.5,0,1,0.4,1.1,0.9s-0.4,1-0.9,1.1
							L257.2,127.5C257.3,127.5,257.2,127.5,257.2,127.5z"/>
					</g>
					<g>
						<g>
							<g>
								<path class="st15" d="M239.2,112.7c0.7,0.1,1.6-0.2,2.5-0.4c0.8-0.3,1.7-0.5,2.5-0.7c0.8-0.2,1.6-0.3,2.5-0.5
									c0.9-0.2,1.8-0.3,2.4-0.7c0.6-0.4,0.7-1.3-0.3-2.1c-0.9-0.8-3.1-1.3-5.6-0.8c-2.5,0.6-4.1,2-4.6,3.1
									C238,111.9,238.5,112.6,239.2,112.7z"/>
							</g>
							<g>
								<path class="st15" d="M276,111c-0.7,0.1-1.6-0.2-2.4-0.4c-0.8-0.3-1.7-0.5-2.4-0.7c-0.8-0.2-1.6-0.4-2.5-0.5
									c-0.9-0.2-1.8-0.3-2.4-0.8c-0.6-0.4-0.6-1.3,0.4-2c1-0.8,3.1-1.3,5.6-0.7c2.5,0.6,4.1,2.1,4.5,3.2
									C277.2,110.1,276.8,110.8,276,111z"/>
							</g>
						</g>
					</g>
				</g>
				<path class="st18" d="M241.5,129c-0.2,0-0.3-0.1-0.4-0.2c-0.2-0.2-0.1-0.5,0.1-0.7c0.1-0.1,3.4-2.3,6.1-0.5
					c0.2,0.2,0.3,0.5,0.1,0.7c-0.2,0.2-0.5,0.3-0.7,0.1c-2.1-1.5-4.9,0.4-4.9,0.5C241.7,129,241.6,129,241.5,129z"/>
				<path class="st18" d="M265.3,129.5c-0.2,0-0.3-0.1-0.4-0.2c-0.2-0.2-0.1-0.5,0.1-0.7c0.1-0.1,3.4-2.3,6.1-0.5
					c0.2,0.2,0.3,0.5,0.1,0.7c-0.2,0.2-0.5,0.3-0.7,0.1c-2.1-1.5-4.9,0.4-4.9,0.5C265.5,129.5,265.4,129.5,265.3,129.5z"/>
			</g>
		</g>
	</g>
	<g>
		<path class="st23" d="M376.9,47.6c-26.5,0-48,21.5-48,48c0,9.9,3,19.1,8.2,26.8c0,0.1-0.3,1.6-0.5,2.6c-0.9,3.7-3.2,10.5-8.8,15.3
			c-4.3,3.6,8.5,6.5,17.7,0.4c1.9-1.2,3.6-2.9,5-4.9c0,0,0,0,0-0.1c7.6,5,16.6,7.9,26.3,7.9c26.5,0,48-21.5,48-48
			S403.4,47.6,376.9,47.6z"/>
		<g>
			<g>
				<path class="st9" d="M353.3,75.4h5.1c1,0,1.9,0.8,1.9,1.9v6.1c0,1.5,1.7,2.4,2.9,1.5c0,0,0,0,0,0c1.2-0.8,2.7-1.2,4.4-1.2
					c2.7,0,4.8,0.8,6.3,2.5c1.5,1.6,2.3,3.9,2.3,6.8v14.6c0,1-0.8,1.9-1.9,1.9h-5.1c-1,0-1.9-0.8-1.9-1.9V95.7c0-1.4-0.3-2.4-1-3.2
					c-0.6-0.7-1.5-1.1-2.5-1.1c-1.1,0-1.9,0.4-2.6,1.1c-0.7,0.7-1,1.8-1,3.2v11.7c0,1-0.8,1.9-1.9,1.9h-5.1c-1,0-1.9-0.8-1.9-1.9
					V77.3C351.4,76.3,352.3,75.4,353.3,75.4z"/>
				<path class="st9" d="M384.1,75.4h2.7c1.8,0,3.3,1.5,3.3,3.3l0,0c0,1.8-1.5,3.3-3.3,3.3h-2.7c-1.8,0-3.3-1.5-3.3-3.3l0,0
					C380.9,76.9,382.3,75.4,384.1,75.4z M384.3,84.2h2.4c1.8,0,3.3,1.5,3.3,3.3v18.6c0,1.8-1.5,3.3-3.3,3.3h-2.4
					c-1.8,0-3.3-1.5-3.3-3.3V87.5C381,85.7,382.5,84.2,384.3,84.2z"/>
				<path class="st9" d="M394.9,80.6v-1.1c0-1.5,1.2-2.7,2.7-2.7h4.6c1.5,0,2.7,1.2,2.7,2.7v1.1c0,0.1,0,0.3,0,0.4l-2.3,15.5
					c-0.2,1.3-1.3,2.3-2.7,2.3l0,0c-1.3,0-2.5-1-2.7-2.3L395,81C394.9,80.8,394.9,80.7,394.9,80.6z M398,101.4h3.8
					c1.5,0,2.7,1.2,2.7,2.7v2.5c0,1.5-1.2,2.7-2.7,2.7H398c-1.5,0-2.7-1.2-2.7-2.7v-2.5C395.4,102.7,396.6,101.4,398,101.4z"/>
			</g>
		</g>
	</g>
	<g>
		<g>
			<path class="st24" d="M333.4,412.4h34.7c3.1,0,5.6-2.5,5.6-5.6v-52.6c0-0.6-0.5-1.1-1.1-1.1h-43.9c-0.5,0-1,0.4-1,1v52.8
				C327.7,409.9,330.3,412.4,333.4,412.4z"/>
			<path class="st24" d="M376,400.5h-4.2v-3h4.2c4.2,0,7.7-3.4,7.7-7.7v-16.1c0-4.2-3.4-7.7-7.7-7.7h-6.1v-3h6.1
				c5.9,0,10.7,4.8,10.7,10.7v16.1C386.7,395.7,381.9,400.5,376,400.5z"/>
			<path class="st25" d="M336.4,412.4H361c3.1,0,5.6-2.5,5.6-5.6v-52.6c0-0.6-0.5-1.1-1.1-1.1h-33.7c-0.5,0-1,0.4-1,1v52.8
				C330.8,409.9,333.3,412.4,336.4,412.4z"/>
			<path class="st26" d="M336.4,412.4h14.3V353h-19c-0.5,0-1,0.4-1,1v52.8C330.8,409.9,333.3,412.4,336.4,412.4z"/>
		</g>
		<g>
			<polygon class="st15" points="314.5,386.3 315,387.8 316.3,391.7 316.8,393.3 316.8,393.3 320.6,392.1 318.4,385.1 318.6,385 
				318.6,385 315.2,386.1 314.5,386.3 			"/>
			<path class="st26" d="M320.6,392.2L320.6,392.2l2-0.6c1.1-0.3,1.7-1.5,1.3-2.6l-1-3.3c-0.3-1.1-1.5-1.7-2.6-1.3l-1.8,0.6
				l-0.2,0.1L320.6,392.2z"/>
			<path class="st21" d="M316,387.5l-34.3,10.9l0,0.1l1.2,0.5c0.8,0.3,1.1,1.3,0.6,2.1l-0.7,0.9l0.1,0.4l34.2-10.8L316,387.5z"/>
			<polygon class="st27" points="283.3,404 283.3,404 283.3,404 			"/>
			<polygon class="st28" points="317.2,391.5 283,402.4 283.4,404 317.7,393.1 			"/>
			<polygon class="st28" points="315.5,386 281.2,396.8 281.7,398.4 316,387.5 			"/>
			<path class="st29" d="M283.3,404L283.3,404l0.2-0.1l0,0l-0.5-1.6l-0.1-0.4l0.7-0.9c0.5-0.7,0.3-1.7-0.6-2.1l-1.2-0.5l0-0.1
				l-0.5-1.6l0,0l0,0l-0.3,0.1l-3.5,3.3l1,3.2l4.8,0.7L283.3,404z"/>
			<path class="st21" d="M276.3,401.3c-0.6,0.6-0.3,1.7,0.6,1.8l1.5,0.3l-1-3.2L276.3,401.3z"/>
		</g>
		<path class="st26" d="M320,412.7c0.1,0.4,0.1,0.8-0.1,1.2l-0.2,0.7c-0.4,1.1-1.6,1.7-2.6,1.3l-8.9-3c-0.5-0.2-0.9-0.5-1.1-1
			c-0.2-0.5-0.2-1,0-1.5l0.2-0.4c0.4-0.9,1.4-1.3,2.3-1l7.5,2.6c0.4,0.1,0.7,0.4,0.9,0.8c0.2,0.4,0.2,0.8,0,1.2l-0.1,0.2
			c-0.3,0.7-1,1.1-1.8,0.8l-5.4-1.8c-0.1,0-0.2-0.1-0.1-0.2c0-0.1,0.1-0.2,0.2-0.1l5.4,1.8c0.5,0.2,1.1-0.1,1.3-0.6l0.1-0.2
			c0.1-0.3,0.1-0.6,0-0.9c-0.1-0.3-0.4-0.5-0.7-0.6l-7.5-2.6c-0.7-0.2-1.5,0.1-1.8,0.8l-0.2,0.4c-0.2,0.4-0.2,0.8,0,1.2
			c0.2,0.4,0.5,0.7,0.9,0.8l8.9,3c0.9,0.3,1.8-0.2,2.2-1.1l0.2-0.7c0.3-1-0.2-2-1.1-2.4l-5.8-2.2c-0.1,0-0.2-0.1-0.1-0.3
			c0-0.1,0.1-0.2,0.2-0.1l5.8,2.2C319.3,411.3,319.9,412,320,412.7z"/>
		<path class="st26" d="M297.8,423.2c-0.2,0.4-0.4,0.7-0.8,0.9l-0.6,0.4c-0.9,0.6-2.2,0.4-2.9-0.5l-5.4-7.6
			c-0.3-0.4-0.4-0.9-0.3-1.5c0.1-0.5,0.4-0.9,0.9-1.2l0.4-0.2c0.8-0.5,1.9-0.2,2.4,0.5l4.5,6.5c0.2,0.3,0.3,0.8,0.2,1.2
			c-0.1,0.4-0.3,0.8-0.7,1l-0.2,0.1c-0.6,0.4-1.5,0.3-1.9-0.4l-3.3-4.6c-0.1-0.1,0-0.2,0-0.3c0.1-0.1,0.2,0,0.3,0l3.3,4.6
			c0.3,0.4,0.9,0.6,1.4,0.3l0.2-0.1c0.3-0.2,0.4-0.4,0.5-0.7c0.1-0.3,0-0.6-0.2-0.9l-4.5-6.5c-0.4-0.6-1.3-0.8-1.9-0.4l-0.4,0.2
			c-0.4,0.2-0.6,0.5-0.7,0.9c-0.1,0.4,0,0.8,0.2,1.1l5.4,7.6c0.5,0.8,1.6,0.9,2.4,0.4l0.6-0.4c0.8-0.6,1.1-1.7,0.5-2.6l-3.4-5.2
			c-0.1-0.1,0-0.2,0.1-0.3c0.1-0.1,0.2,0,0.3,0.1l3.4,5.2C298.1,421.7,298.1,422.5,297.8,423.2z"/>
	</g>
</g>
</svg>
